<?xml version="1.0" encoding="UTF-8"?>
<svg id="Lager_1" xmlns="http://www.w3.org/2000/svg" version="1.1" viewBox="0 0 931.19 306.61">
  <!-- Generator: Adobe Illustrator 30.1.0, SVG Export Plug-In . SVG Version: 2.1.1 Build 136)  -->
  <defs>
    <style>
      .st0 {
        fill: #1e8a4b;
      }

      .st1 {
        fill: none;
      }

      .st2 {
        fill: #1f1f1f;
      }

      .st3 {
        display: none;
      }

      .st4 {
        fill: #f2e9df;
      }
    </style>
  </defs>
  <g id="ALL" class="st3">
    <g id="FRESH" class="st3">
      <polygon class="st1" points="454.42 295.93 463.01 295.96 458.79 284.86 454.42 295.93"/>
      <path class="st1" d="M635.86,283.34l.16,9.82c3.49-.27,5.96-.64,7.54-1.62,1.49-.91,2-5.22.16-6.86-1.64-1.46-5.33-1.57-7.87-1.34h.01Z"/>
      <polygon class="st1" points="387.51 296.15 396.01 295.86 391.7 284.87 387.51 296.15"/>
      <path class="st1" d="M500.05,285.02c-2.61-1.93-6.87-1.85-10.26-1.66l.03,18.59c3.2.62,8.22.81,11.01-2.03,4.07-4.15,3.62-11.64-.77-14.89h-.01Z"/>
      <path class="st1" d="M579.84,294.28c-3.19.44-3.6,5.5-1.71,7.21,2.02,1.83,5.1,1.79,8.33-.62-1.8-2.08-4.66-5.11-6.62-6.59Z"/>
      <path class="st1" d="M207.89,285.5c-.79-2.01-6.47-3.29-7.51-1.62-1.07,1.72-.79,6.57.02,8.19,2.22.11,5.06-.29,6.47-1.04,1.2-.63,1.82-3.48,1.01-5.54h0Z"/>
      <path class="st1" d="M677.21,283.4c-5.22-.13-8.59,3.52-8.77,8.86-.2,5.89,3.06,10.11,8.77,9.94,4.73-.13,8.14-3.86,8.11-9.56-.03-5.5-3.54-9.12-8.12-9.24h.01Z"/>
      <path d="M484.77,279.23l.03,26.86c4.74.26,10,.6,14.71-.54,7.14-1.73,9.65-8.48,9.1-14.57-1.13-12.38-14.08-12.09-23.83-11.75h-.01ZM500.82,299.92c-2.79,2.84-7.8,2.66-11.01,2.03l-.03-18.59c3.39-.19,7.65-.27,10.26,1.66,4.4,3.25,4.84,10.75.77,14.89h.01Z"/>
      <path d="M676.84,279.03c-7.62,0-13.79,6.18-13.79,13.79s6.18,13.79,13.79,13.79,13.79-6.18,13.79-13.79-6.18-13.79-13.79-13.79ZM677.21,302.21c-5.71.16-8.97-4.05-8.77-9.94.18-5.34,3.55-8.99,8.77-8.86,4.58.11,8.09,3.74,8.12,9.24.03,5.71-3.38,9.43-8.11,9.56h-.01Z"/>
      <path d="M213.27,286.18c-.46-3.64-3.67-6.44-7.61-6.57l-10.81-.37-.1,27.03,4.81.02.69-11.11c7.69,1.24,6.4,14.25,15.15,10.62l-7.28-11.07c3.73-2.04,5.56-5.22,5.14-8.55h.01ZM206.88,291.03c-1.41.75-4.25,1.14-6.47,1.04-.82-1.61-1.09-6.47-.02-8.19,1.04-1.67,6.72-.39,7.51,1.62.8,2.05.19,4.9-1.01,5.54h0Z"/>
      <path d="M310.69,280.35l-.38,10.44-12.32.11-.32-10.44c-.03-1.13-3.74-1.36-4.86-.9v26.32l4.86.14.28-11.5,12.44.11.28,10.64c.03,1.26,4.83,1.36,4.83.05l.04-25.44c-1-.67-4.74-.63-4.84.48h0Z"/>
      <path d="M727.65,279.68c-7.9-2.74-8.98,7.17-15.96,11.86-.75-4.08-1-8.04-1.06-11.06-.03-1.35-4.75-1.63-4.76-.16l-.16,25.86,4.86-.02.36-10.74c.04-1.15,3.12-.7,3.8.18l7.35,9.58c1,1.3,4.87,1.43,5.85.25l-10.1-13.67,9.8-12.07h.02Z"/>
      <path d="M594.12,291.58c-.16-.69-2.82.71-3.1,1.38l-1.9,4.45c-2.35-2.3-13.66-12.51-7.33-14.61,3.2-1.06,8.46,5.64,8.17,1.75-.41-5.45-6.54-6.46-10.78-4.4-3.79,1.84-3.89,6.82-1.97,10.92-2.02,1.79-4.73,4.67-4.99,7.11-.28,2.62,1.78,6.08,4.19,7.34,4.29,2.24,8.82.02,12.61-1.38,2.06,1.07,6.07,3.13,7.6,1.46-8.22-8.12-.75-6.53-2.49-14.02h0ZM578.13,301.49c-1.89-1.71-1.49-6.77,1.71-7.21,1.96,1.48,4.82,4.52,6.62,6.59-3.23,2.41-6.31,2.45-8.33.62Z"/>
      <path d="M389.02,279.66l-10.13,25.96c.6.39,3.16.83,4.07.43,2.13-.94,2.36-6.23,3.81-6.29l5.03-.19c1.51-.06,3.53.07,4.89.23,1.75.2,1.18,5.2,4.53,6.53.7.28,2.61-.33,3.35-.8l-10.13-25.9-5.44.05.02-.02ZM387.51,296.15l4.19-11.27,4.31,10.99-8.51.28h.01Z"/>
      <path d="M456.04,279.5l-10.28,26.5c1.68.33,4.75.24,5.21-.86l1.8-4.27c.97-2.31,10.97-1.26,11.49-.62,1.34,1.62,1.81,6.32,4.01,6.14.76-.06,2.71-.66,3.25-.94l-10.05-25.78-5.45-.16h.02ZM454.42,295.93l4.37-11.07,4.22,11.09-8.59-.02Z"/>
      <path d="M641.54,279.52l-10.76-.1.05,26.31c1.22.52,4.61,1.11,4.68-.02l.31-4.42.29-4.04c.06-.81,2.71-.6,4.06-.63,6.28-.16,9.71-3.61,9.74-8.79.02-4.23-3.19-8.25-8.37-8.3h0ZM643.56,291.54c-1.58.97-4.06,1.35-7.54,1.62l-.16-9.82c2.54-.23,6.23-.12,7.87,1.34,1.84,1.64,1.32,5.95-.16,6.86h-.01Z"/>
      <path d="M234.99,294.71l7.44-.07c.92,0,2.44-2.65,1.76-2.97-.46-.22-1.96-.79-2.48-.8l-6.6-.13-.22-7.42,10.69-.02c1.16,0,1.46-3.82.24-3.84l-15.94-.22-.12,26.93,16.87.15.02-3.94-11.81-.19.16-7.49h-.01Z"/>
      <path d="M746.99,294.71l7.44-.07c.92,0,2.44-2.66,1.76-2.97-.47-.21-1.98-.77-2.49-.79l-6.6-.14-.21-7.41,10.69-.02c1.16,0,1.46-3.82.24-3.84l-15.94-.22-.12,26.93,16.87.15.03-3.94-11.81-.19.16-7.49h-.02Z"/>
      <path d="M527.74,285.52c1.73-5.2,8.15.23,10.57-1.39.69-.46.01-3.38-.75-3.69-3.19-1.26-7.89-1.73-10.82-.18-3.44,1.83-4.53,5.69-3.54,9.13,1.54,5.33,8.76,4.38,11.46,7.65.64.78-.09,3.83-.84,4.49-3.86,3.39-9.59-3.38-11.46-.06-2.04,3.63,8.99,7.29,14.13,3.18,2.84-2.27,3.99-6.27,2.92-9.37-1.99-5.74-13.44-4.43-11.67-9.76h0Z"/>
      <path d="M355.81,285.49c1.59-5.11,7.99.14,10.51-1.37.72-.43-.02-3.49-.84-3.76-2.21-.74-6.35-1.39-8.46-.93-4.41.95-6.37,4.72-6.12,8.29.49,7.1,8.92,5.92,11.77,9.31.64.77-.1,3.95-.87,4.6-3.17,2.63-6.74-1.23-10.79-1.02-.71.04-.89,2.62-.29,3.17,2.79,2.53,9.61,4.18,13.82.88,2.79-2.2,3.89-6.3,2.82-9.39-1.99-5.76-13.26-4.3-11.55-9.78h0Z"/>
      <path d="M265.79,285.5c1.78-5.47,8.62.77,10.66-1.65.53-.63-.2-3.2-1.01-3.51-2.08-.8-6.28-1.36-8.43-.92-4.34.89-6.46,4.69-6.19,8.27.53,7,8.71,5.88,11.84,9.37.67.74-.03,3.96-.85,4.54-3.95,2.78-6.66-1.83-10.96-.76-.67.17-.73,2.32-.18,2.85,2.85,2.77,9.66,4.26,13.84.97,2.81-2.21,3.89-6.38,2.87-9.38-1.99-5.82-13.36-4.39-11.6-9.79h.01Z"/>
      <path d="M180.76,283.27l-.28-4.01-16.68.21v25.61c.2,1.07,3.9,1.48,4.84,1.04l.37-10.62,9.07-.4c1.06-.05.9-3.65-.48-3.69l-8.8-.26.34-7.82,11.63-.07h0Z"/>
      <path d="M433.74,302.4l-9.86-.4-.15-22.16c-.49-.33-3.53-.3-4.94-.08v26.52l15.23.02c.58-.02.56-3.87-.29-3.9h0Z"/>
    </g>
    <g id="SALETTE">
      <path d="M767.76,68.56l-19.05-.52c-24.96-.68-93.22-20.95-107.81,5.57-2.96-1.81-7.36-5.11-11.02-5.17-12.13-.2-23.28-.35-35.12-2.18l-26.04-4.03c-13.51-2.09-26.75-3.03-40.33-1.52-9.37,1.04-26.61,6.13-24.45,17.6,2.5,13.29,21.06,11.29,30.92,10.4,5.26-.47,16.76-2.25,16.97,5.56.33,12.55-.32,24.49-1.08,37.02l-.62,10.11-.79,16.93-.98,18.89c-.37,7.09-1.57,14.62,1.04,21.36,2.78,7.19,10.17,9.73,17.33,10.16,7.12.43,12.92-2.43,15.12-9.75,4.6-15.32,2.73-24.54,3.23-39.69l.3-9.07c.58-17.69,1.12-34.6,4.37-52.05.46-2.49,3.38-4.9,5.84-4.84l19.13.49c9.62.25,25.69,2.51,30.44-8.32,5.28,3.23,11.92,4.32,18.63,3.87l18.06-1.2c3.93-.26,7.03,3.21,7.04,7.59.04,9.92-.22,18.93-.71,28.07l-2.04,37.99-1.45,27.38c-.59,11.09,6.58,18.38,17.13,19.45,7.81.8,15.02-2.06,17.35-10.36,1.84-6.58,2.7-13.8,2.88-21.01l1.36-53.34c.23-8.88,1.91-16.96,3.27-25.86,1.89-12.35,51.34,5.31,55.11-12.56,2.46-11.67-11.8-16.89-14.04-16.95v-.02h.01Z"/>
      <path d="M929.4,184.78c-3.95-7.06-11.98-9.28-19.64-8.84-25.22,1.47-37.64,9.32-63.13,9.47-1.7,0-4.59-1.02-5.42-2.16-.83-1.14-1.64-4.24-1.71-5.85l-1.07-24.84c-.11-2.52,2.63-5.81,4.81-5.86l29.53-.66c3.54-.08,8.71-3.12,11.18-5.35,7.56-6.82,6.6-17.68-1.07-23.62-4.56-3.54-10.21-5.04-16.14-3.92l-23.59,4.47c-2.28.43-5.24.55-7.19-.52l-2.65-31.58c-.21-2.55-.57-5.31.89-7.15.95-1.19,3.74-2.81,5.47-2.83l37.05-.39c8.93-.09,16.31-8.91,15.68-17.43-.55-7.48-7.32-14.71-15.14-14.87l-54.09-1.07c-5.14-.1-8.4-1.79-13.87-.04-2.84.91-7.55.78-10.95,1.08-9.13.83-16.15,7.82-15.73,16.91.37,8.07,7.08,14.89,16.78,15.41l2.56,36.13c1.78,25.1,3.63,49.46,4.19,74.54.19,8.56,2.07,16.92,7.88,23.2,13.67,14.78,44.41,9.32,62.53,6.13l40.78-7.16c10.9-1.91,17.14-14.1,12.04-23.22l.02.02h0Z"/>
      <path d="M235.93,198.27c-.42-3.85-2.85-7.71-3.64-11.49-8.79-41.93-21.49-99.08-50.41-131.47-4.98-5.57-11.06-7-18.06-6.39-14.24,1.23-24.2,9.66-28.57,23.16-8.96,27.72-21.13,101.1-18.26,128.88.87,8.4,7.79,15.08,15.82,15.21,9.06.15,15.91-7.38,16.49-16.32.7-10.8,1.4-20.97,2.77-31.6l7.83,3.32,33.48.47c2.44,3.64,3.98,7.1,4.75,10.87,2.78,13.58,6.78,37.64,26.6,33.2,7.81-1.75,12.08-9.74,11.19-17.84h0,0ZM183.88,138.78l-18.54.02c-4.88,0-7.17-3.13-7.68-7.56-3.16-12.08,4.64-29.49,9.4-42.23,7.9,15.21,14.53,29.9,19.47,46.51.38,1.27-1.56,3.25-2.65,3.25h0Z"/>
      <path d="M90.49,26.75c-3.39,1.63-6.52,2.93-9.97,4.02-28.16,8.9-57.96,35.62-68.47,62.73-8.06,20.79,5.31,33.15,19.68,45.95,9.01,8.04,16.55,17.85,20.33,29.11,3.27,9.77-.87,18.89-10.03,23.02-9.63,4.35-16.74,12.07-18.37,22.72-1.4,9.16,3.95,16.52,13.27,18.26,26.73,4.99,50.79-22.93,51.95-51.16,1.02-24.87-21.94-49.75-39.72-64.37-6.96-5.72-9.42-13.55-5.15-21.84,4.17-8.08,11.28-13.72,19.14-18.48,11.36-6.88,22.05-14.07,33.98-19.82,5.16-2.49,24.96-8.65,17.81-19.69-5.22-8.05-15.25-12.11-24.44-10.46h-.01Z"/>
      <path d="M364.02,193.21c.82-10.98-9.43-17.65-19.55-17.75l-36.71-.34c-5.62-.05-12.4-5.21-12.41-11.12l-.11-59.18c-.02-13.38.69-26.06.22-39.44-.32-9.05-8.68-17.28-17.57-16.44-10.38.98-15.59,10.83-15.44,20.3l.24,15.06-.39,20.55-.92,71.41c-.07,5.69-1.74,11.2-.39,16.68,1.69,6.82,7.3,10.7,14.05,12.54,13.55,3.69,27.59,3.12,41.76,3.2l25.58.15c10.23.06,20.79-4.33,21.63-15.63h.01Z"/>
      <path d="M496.72,176.14c-23.35-1.03-43.14,9.36-67.91,9.33-3.77,0-7.26-2.07-7.44-6.5l-1.1-26.53c-.13-3.18,2.67-5.64,5.58-5.71l27.78-.68c7.8-.19,15.41-6.49,17.05-13.74,1.44-6.35-1.93-11.47-5.73-14.91-4.49-4.06-10.05-5.32-16.24-4.18l-26.09,4.84c-1.24.23-4.77-.49-4.9-1.96l-2.89-33.8c-.29-3.37,2.81-6.59,6.03-6.62l36.97-.37c7.54-.07,14.98-6.61,16.26-13.97,1.44-8.29-5.32-18.13-14.17-18.33l-55.86-1.23c-4.81-.11-7.62-1.79-12.78.03-4.61,1.62-16.88-1.92-23.81,7.98-3.22,4.59-3.95,10.28-1.8,15.39,2.71,6.42,9,9.32,15.86,10.6l.72,12.58,2.26,30.94c1.71,23.42,3.11,46.02,3.6,69.28.32,15.28,10.3,27.36,25.58,29.27,28.84,3.6,52.21-5.64,81.73-8.96,8.5-.96,16.63-6.45,17.57-15.62.95-9.32-7.03-16.71-16.28-17.12h.01Z"/>
      <path d="M373.8,26.97l21.04.7,30.26,1.21c9.83.39,19.36.66,29.18-.06,9.66-.71,19.49-.13,28.65-3.07,6.61-2.12,11.61-8.56,9.87-15.24-1.89-7.25-9.59-11.55-17.01-10.3-8.68,1.46-17.36,3.56-26.4,3.64-17.35.14-34.05.29-51.49,2.01-8.79.87-17.37-.56-26.05-.61-6.41-.03-13.72,4.81-11.59,11.87,1.41,4.68,8.48,9.69,13.52,9.86h.02Z"/>
    </g>
  </g>
  <g id="Logo-webb">
    <g id="almost_BLACK">
      <path class="st2" d="M762.95,105.3l-19.05-.52c-24.96-.68-93.22-20.95-107.81,5.57-2.96-1.81-7.36-5.11-11.02-5.17-12.13-.2-23.28-.35-35.12-2.18l-26.04-4.03c-13.51-2.09-26.75-3.03-40.33-1.52-9.37,1.04-26.61,6.13-24.45,17.6,2.5,13.29,21.06,11.29,30.92,10.4,5.26-.47,16.76-2.25,16.97,5.56.33,12.55-.32,24.49-1.08,37.02l-.62,10.11-.79,16.93-.98,18.89c-.37,7.09-1.57,14.62,1.04,21.36,2.78,7.19,10.17,9.73,17.33,10.16,7.12.43,12.92-2.43,15.12-9.75,4.6-15.32,2.73-24.54,3.23-39.69l.3-9.07c.58-17.69,1.12-34.6,4.37-52.05.46-2.49,3.38-4.9,5.84-4.84l19.13.49c9.62.25,25.69,2.51,30.44-8.32,5.28,3.23,11.92,4.32,18.63,3.87l18.06-1.2c3.93-.26,7.03,3.21,7.04,7.59.04,9.92-.22,18.93-.71,28.07l-2.04,37.99-1.45,27.38c-.59,11.09,6.58,18.38,17.13,19.45,7.81.8,15.02-2.06,17.35-10.36,1.84-6.58,2.7-13.8,2.88-21.01l1.36-53.34c.23-8.88,1.91-16.96,3.27-25.86,1.89-12.35,51.34,5.31,55.11-12.56,2.46-11.67-11.8-16.89-14.04-16.95v-.02h.01Z"/>
      <path class="st2" d="M924.59,221.52c-3.95-7.06-11.98-9.28-19.64-8.84-25.22,1.47-37.64,9.32-63.13,9.47-1.7,0-4.59-1.02-5.42-2.16-.83-1.14-1.64-4.24-1.71-5.85l-1.07-24.84c-.11-2.52,2.63-5.81,4.81-5.86l29.53-.66c3.54-.08,8.71-3.12,11.18-5.35,7.56-6.82,6.6-17.68-1.07-23.62-4.56-3.54-10.21-5.04-16.14-3.92l-23.59,4.47c-2.28.43-5.24.55-7.19-.52l-2.65-31.58c-.21-2.55-.57-5.31.89-7.15.95-1.19,3.74-2.81,5.47-2.83l37.05-.39c8.93-.09,16.31-8.91,15.68-17.43-.55-7.48-7.32-14.71-15.14-14.87l-54.09-1.07c-5.14-.1-8.4-1.79-13.87-.04-2.84.91-7.55.78-10.95,1.08-9.13.83-16.15,7.82-15.73,16.91.37,8.07,7.08,14.89,16.78,15.41l2.56,36.13c1.78,25.1,3.63,49.46,4.19,74.54.19,8.56,2.07,16.92,7.88,23.2,13.67,14.78,44.41,9.32,62.53,6.13l40.78-7.16c10.9-1.91,17.14-14.1,12.04-23.22l.02.02h0Z"/>
      <path class="st2" d="M231.12,235.01c-.42-3.85-2.85-7.71-3.64-11.49-8.79-41.93-21.49-99.08-50.41-131.47-4.98-5.57-11.06-7-18.06-6.39-14.24,1.23-24.2,9.66-28.57,23.16-8.96,27.72-21.13,101.1-18.26,128.88.87,8.4,7.79,15.08,15.82,15.21,9.06.15,15.91-7.38,16.49-16.32.7-10.8,1.4-20.97,2.77-31.6l7.83,3.32,33.48.47c2.44,3.64,3.98,7.1,4.75,10.87,2.78,13.58,6.78,37.64,26.6,33.2,7.81-1.75,12.08-9.74,11.19-17.84h0,0ZM179.07,175.52l-18.54.02c-4.88,0-7.17-3.13-7.68-7.56-3.16-12.08,4.64-29.49,9.4-42.23,7.9,15.21,14.53,29.9,19.47,46.51.38,1.27-1.56,3.25-2.65,3.25h0Z"/>
      <path class="st2" d="M85.68,63.49c-3.39,1.63-6.52,2.93-9.97,4.02-28.16,8.9-57.96,35.62-68.47,62.73-8.06,20.79,5.31,33.15,19.68,45.95,9.01,8.04,16.55,17.85,20.33,29.11,3.27,9.77-.87,18.89-10.03,23.02-9.63,4.35-16.74,12.07-18.37,22.72-1.4,9.16,3.95,16.52,13.27,18.26,26.73,4.99,50.79-22.93,51.95-51.16,1.02-24.87-21.94-49.75-39.72-64.37-6.96-5.72-9.42-13.55-5.15-21.84,4.17-8.08,11.28-13.72,19.14-18.48,11.36-6.88,22.05-14.07,33.98-19.82,5.16-2.49,24.96-8.65,17.81-19.69-5.22-8.05-15.25-12.11-24.44-10.46h-.01Z"/>
      <path class="st2" d="M359.21,229.94c.82-10.98-9.43-17.65-19.55-17.75l-36.71-.34c-5.62-.05-12.4-5.21-12.41-11.12l-.11-59.18c-.02-13.38.69-26.06.22-39.44-.32-9.05-8.68-17.28-17.57-16.44-10.38.98-15.59,10.83-15.44,20.3l.24,15.06-.39,20.55-.92,71.41c-.07,5.69-1.74,11.2-.39,16.68,1.69,6.82,7.3,10.7,14.05,12.54,13.55,3.69,27.59,3.12,41.76,3.2l25.58.15c10.23.06,20.79-4.33,21.63-15.63h.01Z"/>
      <path class="st2" d="M491.91,212.87c-23.35-1.03-43.14,9.36-67.91,9.33-3.77,0-7.26-2.07-7.44-6.5l-1.1-26.53c-.13-3.18,2.67-5.64,5.58-5.71l27.78-.68c7.8-.19,15.41-6.49,17.05-13.74,1.44-6.35-1.93-11.47-5.73-14.91-4.49-4.06-10.05-5.32-16.24-4.18l-26.09,4.84c-1.24.23-4.77-.49-4.9-1.96l-2.89-33.8c-.29-3.37,2.81-6.59,6.03-6.62l36.97-.37c7.54-.07,14.98-6.61,16.26-13.97,1.44-8.29-5.32-18.13-14.17-18.33l-55.86-1.23c-4.81-.11-7.62-1.79-12.78.03-4.61,1.62-16.88-1.92-23.81,7.98-3.22,4.59-3.95,10.28-1.8,15.39,2.71,6.42,9,9.32,15.86,10.6l.72,12.58,2.26,30.94c1.71,23.42,3.11,46.02,3.6,69.28.32,15.28,10.3,27.36,25.58,29.27,28.84,3.6,52.21-5.64,81.73-8.96,8.5-.96,16.63-6.45,17.57-15.62.95-9.32-7.03-16.71-16.28-17.12h.01Z"/>
      <path class="st2" d="M368.99,63.71l21.04.7,30.26,1.21c9.83.39,19.36.66,29.18-.06,9.66-.71,19.49-.13,28.65-3.07,6.61-2.12,11.61-8.56,9.87-15.24-1.89-7.25-9.59-11.55-17.01-10.3-8.68,1.46-17.36,3.56-26.4,3.64-17.35.14-34.05.29-51.49,2.01-8.79.87-17.37-.56-26.05-.61-6.41-.03-13.72,4.81-11.59,11.87,1.41,4.68,8.48,9.69,13.52,9.86h.02Z"/>
    </g>
    <g id="BEIGE" class="st3">
      <path class="st4" d="M758.14,100.3l-19.05-.52c-24.96-.68-93.22-20.95-107.81,5.57-2.96-1.81-7.36-5.11-11.02-5.17-12.13-.2-23.28-.35-35.12-2.18l-26.04-4.03c-13.51-2.09-26.75-3.03-40.33-1.52-9.37,1.04-26.61,6.13-24.45,17.6,2.5,13.29,21.06,11.29,30.92,10.4,5.26-.47,16.76-2.25,16.97,5.56.33,12.55-.32,24.49-1.08,37.02l-.62,10.11-.79,16.93-.98,18.89c-.37,7.09-1.57,14.62,1.04,21.36,2.78,7.19,10.17,9.73,17.33,10.16,7.12.43,12.92-2.43,15.12-9.75,4.6-15.32,2.73-24.54,3.23-39.69l.3-9.07c.58-17.69,1.12-34.6,4.37-52.05.46-2.49,3.38-4.9,5.84-4.84l19.13.49c9.62.25,25.69,2.51,30.44-8.32,5.28,3.23,11.92,4.32,18.63,3.87l18.06-1.2c3.93-.26,7.03,3.21,7.04,7.59.04,9.92-.22,18.93-.71,28.07l-2.04,37.99-1.45,27.38c-.59,11.09,6.58,18.38,17.13,19.45,7.81.8,15.02-2.06,17.35-10.36,1.84-6.58,2.7-13.8,2.88-21.01l1.36-53.34c.23-8.88,1.91-16.96,3.27-25.86,1.89-12.35,51.34,5.31,55.11-12.56,2.46-11.67-11.8-16.89-14.04-16.95v-.02h.01Z"/>
      <path class="st4" d="M919.78,216.52c-3.95-7.06-11.98-9.28-19.64-8.84-25.22,1.47-37.64,9.32-63.13,9.47-1.7,0-4.59-1.02-5.42-2.16-.83-1.14-1.64-4.24-1.71-5.85l-1.07-24.84c-.11-2.52,2.63-5.81,4.81-5.86l29.53-.66c3.54-.08,8.71-3.12,11.18-5.35,7.56-6.82,6.6-17.68-1.07-23.62-4.56-3.54-10.21-5.04-16.14-3.92l-23.59,4.47c-2.28.43-5.24.55-7.19-.52l-2.65-31.58c-.21-2.55-.57-5.31.89-7.15.95-1.19,3.74-2.81,5.47-2.83l37.05-.39c8.93-.09,16.31-8.91,15.68-17.43-.55-7.48-7.32-14.71-15.14-14.87l-54.09-1.07c-5.14-.1-8.4-1.79-13.87-.04-2.84.91-7.55.78-10.95,1.08-9.13.83-16.15,7.82-15.73,16.91.37,8.07,7.08,14.89,16.78,15.41l2.56,36.13c1.78,25.1,3.63,49.46,4.19,74.54.19,8.56,2.07,16.92,7.88,23.2,13.67,14.78,44.41,9.32,62.53,6.13l40.78-7.16c10.9-1.91,17.14-14.1,12.04-23.22l.02.02h0Z"/>
      <path class="st4" d="M226.31,230.01c-.42-3.85-2.85-7.71-3.64-11.49-8.79-41.93-21.49-99.08-50.41-131.47-4.98-5.57-11.06-7-18.06-6.39-14.24,1.23-24.2,9.66-28.57,23.16-8.96,27.72-21.13,101.1-18.26,128.88.87,8.4,7.79,15.08,15.82,15.21,9.06.15,15.91-7.38,16.49-16.32.7-10.8,1.4-20.97,2.77-31.6l7.83,3.32,33.48.47c2.44,3.64,3.98,7.1,4.75,10.87,2.78,13.58,6.78,37.64,26.6,33.2,7.81-1.75,12.08-9.74,11.19-17.84h0ZM174.26,170.52l-18.54.02c-4.88,0-7.17-3.13-7.68-7.56-3.16-12.08,4.64-29.49,9.4-42.23,7.9,15.21,14.53,29.9,19.47,46.51.38,1.27-1.56,3.25-2.65,3.25h0Z"/>
      <path class="st4" d="M80.87,58.49c-3.39,1.63-6.52,2.93-9.97,4.02C42.74,71.41,12.94,98.13,2.43,125.24c-8.06,20.79,5.31,33.15,19.68,45.95,9.01,8.04,16.55,17.85,20.33,29.11,3.27,9.77-.87,18.89-10.03,23.02-9.63,4.35-16.74,12.07-18.37,22.72-1.4,9.16,3.95,16.52,13.27,18.26,26.73,4.99,50.79-22.93,51.95-51.16,1.02-24.87-21.94-49.75-39.72-64.37-6.96-5.72-9.42-13.55-5.15-21.84,4.17-8.08,11.28-13.72,19.14-18.48,11.36-6.88,22.05-14.07,33.98-19.82,5.16-2.49,24.96-8.65,17.81-19.69-5.22-8.05-15.25-12.11-24.44-10.46h0Z"/>
      <path class="st4" d="M354.4,224.94c.82-10.98-9.43-17.65-19.55-17.75l-36.71-.34c-5.62-.05-12.4-5.21-12.41-11.12l-.11-59.18c-.02-13.38.69-26.06.22-39.44-.32-9.05-8.68-17.28-17.57-16.44-10.38.98-15.59,10.83-15.44,20.3l.24,15.06-.39,20.55-.92,71.41c-.07,5.69-1.74,11.2-.39,16.68,1.69,6.82,7.3,10.7,14.05,12.54,13.55,3.69,27.59,3.12,41.76,3.2l25.58.15c10.23.06,20.79-4.33,21.63-15.63h.01,0Z"/>
      <path class="st4" d="M487.1,207.87c-23.35-1.03-43.14,9.36-67.91,9.33-3.77,0-7.26-2.07-7.44-6.5l-1.1-26.53c-.13-3.18,2.67-5.64,5.58-5.71l27.78-.68c7.8-.19,15.41-6.49,17.05-13.74,1.44-6.35-1.93-11.47-5.73-14.91-4.49-4.06-10.05-5.32-16.24-4.18l-26.09,4.84c-1.24.23-4.77-.49-4.9-1.96l-2.89-33.8c-.29-3.37,2.81-6.59,6.03-6.62l36.97-.37c7.54-.07,14.98-6.61,16.26-13.97,1.44-8.29-5.32-18.13-14.17-18.33l-55.86-1.23c-4.81-.11-7.62-1.79-12.78.03-4.61,1.62-16.88-1.92-23.81,7.98-3.22,4.59-3.95,10.28-1.8,15.39,2.71,6.42,9,9.32,15.86,10.6l.72,12.58,2.26,30.94c1.71,23.42,3.11,46.02,3.6,69.28.32,15.28,10.3,27.36,25.58,29.27,28.84,3.6,52.21-5.64,81.73-8.96,8.5-.96,16.63-6.45,17.57-15.62.95-9.32-7.03-16.71-16.28-17.12h.01Z"/>
      <path class="st4" d="M364.18,58.71l21.04.7,30.26,1.21c9.83.39,19.36.66,29.18-.06,9.66-.71,19.49-.13,28.65-3.07,6.61-2.12,11.61-8.56,9.87-15.24-1.89-7.25-9.59-11.55-17.01-10.3-8.68,1.46-17.36,3.56-26.4,3.64-17.35.14-34.05.29-51.49,2.01-8.79.87-17.37-.56-26.05-.61-6.41-.03-13.72,4.81-11.59,11.87,1.41,4.68,8.48,9.69,13.52,9.86h.02Z"/>
    </g>
    <g id="GREEN" class="st3">
      <path class="st0" d="M762.95,105.3l-19.05-.52c-24.96-.68-93.22-20.95-107.81,5.57-2.96-1.81-7.36-5.11-11.02-5.17-12.13-.2-23.28-.35-35.12-2.18l-26.04-4.03c-13.51-2.09-26.75-3.03-40.33-1.52-9.37,1.04-26.61,6.13-24.45,17.6,2.5,13.29,21.06,11.29,30.92,10.4,5.26-.47,16.76-2.25,16.97,5.56.33,12.55-.32,24.49-1.08,37.02l-.62,10.11-.79,16.93-.98,18.89c-.37,7.09-1.57,14.62,1.04,21.36,2.78,7.19,10.17,9.73,17.33,10.16,7.12.43,12.92-2.43,15.12-9.75,4.6-15.32,2.73-24.54,3.23-39.69l.3-9.07c.58-17.69,1.12-34.6,4.37-52.05.46-2.49,3.38-4.9,5.84-4.84l19.13.49c9.62.25,25.69,2.51,30.44-8.32,5.28,3.23,11.92,4.32,18.63,3.87l18.06-1.2c3.93-.26,7.03,3.21,7.04,7.59.04,9.92-.22,18.93-.71,28.07l-2.04,37.99-1.45,27.38c-.59,11.09,6.58,18.38,17.13,19.45,7.81.8,15.02-2.06,17.35-10.36,1.84-6.58,2.7-13.8,2.88-21.01l1.36-53.34c.23-8.88,1.91-16.96,3.27-25.86,1.89-12.35,51.34,5.31,55.11-12.56,2.46-11.67-11.8-16.89-14.04-16.95v-.02h.01Z"/>
      <path class="st0" d="M924.59,221.52c-3.95-7.06-11.98-9.28-19.64-8.84-25.22,1.47-37.64,9.32-63.13,9.47-1.7,0-4.59-1.02-5.42-2.16-.83-1.14-1.64-4.24-1.71-5.85l-1.07-24.84c-.11-2.52,2.63-5.81,4.81-5.86l29.53-.66c3.54-.08,8.71-3.12,11.18-5.35,7.56-6.82,6.6-17.68-1.07-23.62-4.56-3.54-10.21-5.04-16.14-3.92l-23.59,4.47c-2.28.43-5.24.55-7.19-.52l-2.65-31.58c-.21-2.55-.57-5.31.89-7.15.95-1.19,3.74-2.81,5.47-2.83l37.05-.39c8.93-.09,16.31-8.91,15.68-17.43-.55-7.48-7.32-14.71-15.14-14.87l-54.09-1.07c-5.14-.1-8.4-1.79-13.87-.04-2.84.91-7.55.78-10.95,1.08-9.13.83-16.15,7.82-15.73,16.91.37,8.07,7.08,14.89,16.78,15.41l2.56,36.13c1.78,25.1,3.63,49.46,4.19,74.54.19,8.56,2.07,16.92,7.88,23.2,13.67,14.78,44.41,9.32,62.53,6.13l40.78-7.16c10.9-1.91,17.14-14.1,12.04-23.22l.02.02h0Z"/>
      <path class="st0" d="M231.12,235.01c-.42-3.85-2.85-7.71-3.64-11.49-8.79-41.93-21.49-99.08-50.41-131.47-4.98-5.57-11.06-7-18.06-6.39-14.24,1.23-24.2,9.66-28.57,23.16-8.96,27.72-21.13,101.1-18.26,128.88.87,8.4,7.79,15.08,15.82,15.21,9.06.15,15.91-7.38,16.49-16.32.7-10.8,1.4-20.97,2.77-31.6l7.83,3.32,33.48.47c2.44,3.64,3.98,7.1,4.75,10.87,2.78,13.58,6.78,37.64,26.6,33.2,7.81-1.75,12.08-9.74,11.19-17.84h0,0ZM179.07,175.52l-18.54.02c-4.88,0-7.17-3.13-7.68-7.56-3.16-12.08,4.64-29.49,9.4-42.23,7.9,15.21,14.53,29.9,19.47,46.51.38,1.27-1.56,3.25-2.65,3.25h0Z"/>
      <path class="st0" d="M85.68,63.49c-3.39,1.63-6.52,2.93-9.97,4.02-28.16,8.9-57.96,35.62-68.47,62.73-8.06,20.79,5.31,33.15,19.68,45.95,9.01,8.04,16.55,17.85,20.33,29.11,3.27,9.77-.87,18.89-10.03,23.02-9.63,4.35-16.74,12.07-18.37,22.72-1.4,9.16,3.95,16.52,13.27,18.26,26.73,4.99,50.79-22.93,51.95-51.16,1.02-24.87-21.94-49.75-39.72-64.37-6.96-5.72-9.42-13.55-5.15-21.84,4.17-8.08,11.28-13.72,19.14-18.48,11.36-6.88,22.05-14.07,33.98-19.82,5.16-2.49,24.96-8.65,17.81-19.69-5.22-8.05-15.25-12.11-24.44-10.46h-.01Z"/>
      <path class="st0" d="M359.21,229.94c.82-10.98-9.43-17.65-19.55-17.75l-36.71-.34c-5.62-.05-12.4-5.21-12.41-11.12l-.11-59.18c-.02-13.38.69-26.06.22-39.44-.32-9.05-8.68-17.28-17.57-16.44-10.38.98-15.59,10.83-15.44,20.3l.24,15.06-.39,20.55-.92,71.41c-.07,5.69-1.74,11.2-.39,16.68,1.69,6.82,7.3,10.7,14.05,12.54,13.55,3.69,27.59,3.12,41.76,3.2l25.58.15c10.23.06,20.79-4.33,21.63-15.63h.01Z"/>
      <path class="st0" d="M491.91,212.87c-23.35-1.03-43.14,9.36-67.91,9.33-3.77,0-7.26-2.07-7.44-6.5l-1.1-26.53c-.13-3.18,2.67-5.64,5.58-5.71l27.78-.68c7.8-.19,15.41-6.49,17.05-13.74,1.44-6.35-1.93-11.47-5.73-14.91-4.49-4.06-10.05-5.32-16.24-4.18l-26.09,4.84c-1.24.23-4.77-.49-4.9-1.96l-2.89-33.8c-.29-3.37,2.81-6.59,6.03-6.62l36.97-.37c7.54-.07,14.98-6.61,16.26-13.97,1.44-8.29-5.32-18.13-14.17-18.33l-55.86-1.23c-4.81-.11-7.62-1.79-12.78.03-4.61,1.62-16.88-1.92-23.81,7.98-3.22,4.59-3.95,10.28-1.8,15.39,2.71,6.42,9,9.32,15.86,10.6l.72,12.58,2.26,30.94c1.71,23.42,3.11,46.02,3.6,69.28.32,15.28,10.3,27.36,25.58,29.27,28.84,3.6,52.21-5.64,81.73-8.96,8.5-.96,16.63-6.45,17.57-15.62.95-9.32-7.03-16.71-16.28-17.12h.01Z"/>
      <path class="st0" d="M368.99,63.71l21.04.7,30.26,1.21c9.83.39,19.36.66,29.18-.06,9.66-.71,19.49-.13,28.65-3.07,6.61-2.12,11.61-8.56,9.87-15.24-1.89-7.25-9.59-11.55-17.01-10.3-8.68,1.46-17.36,3.56-26.4,3.64-17.35.14-34.05.29-51.49,2.01-8.79.87-17.37-.56-26.05-.61-6.41-.03-13.72,4.81-11.59,11.87,1.41,4.68,8.48,9.69,13.52,9.86h.02Z"/>
    </g>
  </g>
</svg>